<svg id="Layer_1" data-name="Layer 1" xmlns="http://www.w3.org/2000/svg" viewBox="0 0 64 64"><defs><style>.cls-1{fill:none;stroke:#FFE763;stroke-linecap:round;stroke-linejoin:round;stroke-width:2px;}</style></defs><path class="cls-1" d="M46.5,13.42h8.09a3,3,0,0,0,2.69-1.6,5.38,5.38,0,0,0,0-5.21A3,3,0,0,0,54.58,5H5.19s4.52,4.41,0,8.39H46.5"/><polyline class="cls-1" points="40.27 5.03 40.27 11.2 43.33 8.65 46.39 11.2 46.39 5.03"/><path class="cls-1" d="M6.86,42.31a.34.34,0,0,0,0,.1,4.24,4.24,0,0,0,4.25,4.46H52s-4.43-4.39,0-8.4l-40.88,0A4.22,4.22,0,0,0,6.86,42.31Z"/><line class="cls-1" x1="22.02" y1="42.48" x2="49.13" y2="42.48"/><line class="cls-1" x1="17.5" y1="42.48" x2="13.87" y2="42.48"/><line class="cls-1" x1="56.43" y1="38.46" x2="51.98" y2="38.47"/><line class="cls-1" x1="56.43" y1="46.93" x2="51.98" y2="46.94"/><path class="cls-1" d="M58.12,51.24a3,3,0,0,0-2.68-1.79H6.05s4.52,5,0,9.52h49.4a3,3,0,0,0,2.69-1.81A6.85,6.85,0,0,0,58.12,51.24Z"/><path class="cls-1" d="M56.24,32v-.1A4.23,4.23,0,0,0,52,27.45H11.12s4.42,4.39,0,8.4L52,35.9A4.23,4.23,0,0,0,56.24,32Z"/><polyline class="cls-1" points="13.65 50.2 13.65 56.32 16.71 53.04 19.77 56.32 19.77 50.2"/><line class="cls-1" x1="33.68" y1="31.75" x2="56.24" y2="31.91"/><path class="cls-1" d="M55,24.47H10.35a4.11,4.11,0,0,1-4.11-4.11h0a4.11,4.11,0,0,1,4.11-4.11H55a7.52,7.52,0,0,0,0,8.22Z"/><line class="cls-1" x1="6.43" y1="21.61" x2="47.69" y2="21.61"/></svg>