<svg id="Layer_1" data-name="Layer 1" xmlns="http://www.w3.org/2000/svg" viewBox="0 0 64 64"><defs><style>.cls-1{fill:#FFE763;stroke:#231f20;stroke-linecap:round;stroke-linejoin:round;stroke-width:2px;}</style></defs><polyline class="cls-1" points="10.55 11.32 10.56 59.74 4.71 59.74 10.56 46.05"/><line class="cls-1" x1="10.54" y1="7.44" x2="10.55" y2="8.41"/><line class="cls-1" x1="10.56" y1="59.74" x2="58.7" y2="59.74"/><rect class="cls-1" x="13.91" y="11.59" width="10.2" height="45.59"/><rect class="cls-1" x="27.44" y="4.26" width="10.2" height="52.92"/><rect class="cls-1" x="44.9" y="14.74" width="10.2" height="41.2" transform="translate(-6.28 11.23) rotate(-12.06)"/><path class="cls-1" d="M21.84,26.67a2.62,2.62,0,1,1-2.61-2.62A2.61,2.61,0,0,1,21.84,26.67Z"/><line class="cls-1" x1="13.91" y1="50.75" x2="24.11" y2="50.75"/><line class="cls-1" x1="27.44" y1="11.59" x2="37.64" y2="11.59"/><line class="cls-1" x1="27.44" y1="16.25" x2="37.64" y2="16.25"/><path class="cls-1" d="M35.37,50.46a2.62,2.62,0,1,1-2.61-2.61A2.61,2.61,0,0,1,35.37,50.46Z"/><line class="cls-1" x1="46.4" y1="18.95" x2="51.34" y2="40.25"/><path class="cls-1" d="M55.29,47.85a2.62,2.62,0,1,1-2.61-2.62A2.61,2.61,0,0,1,55.29,47.85Z"/><line class="cls-1" x1="48.43" y1="9.87" x2="47.67" y2="6.95"/><line class="cls-1" x1="52.68" y1="11.59" x2="56.1" y2="8.15"/><line class="cls-1" x1="54.39" y1="16.25" x2="57.5" y2="16.25"/></svg>